<svg xmlns="http://www.w3.org/2000/svg" width="854" height="150" viewBox="0 0 854 150">
  <g font-family="'Segoe UI', Ubuntu, 'Helvetica Neue', sans-serif">
    <!-- connectors to audit bar -->
    <g stroke="#1f6feb" stroke-opacity="0.3" stroke-width="1" fill="none">
      <path d="M95 74 V104 M261 74 V104 M427 74 V104 M593 74 V104 M759 74 V104"/>
    </g>
    <!-- boxes -->
    <g fill="#161b22" stroke="#21262d">
      <rect x="28" y="30" width="134" height="44" rx="7"/>
      <rect x="194" y="30" width="134" height="44" rx="7"/>
      <rect x="360" y="30" width="134" height="44" rx="7"/>
      <rect x="526" y="30" width="134" height="44" rx="7"/>
      <rect x="692" y="30" width="134" height="44" rx="7"/>
    </g>
    <g fill="#e6edf3" font-size="12" text-anchor="middle">
      <text x="95" y="56">Records</text>
      <text x="261" y="56">Retrieval</text>
      <text x="427" y="56">Model draft</text>
      <text x="593" y="56">Confidence gate</text>
      <text x="759" y="56">Human decision</text>
    </g>
    <!-- arrows -->
    <g stroke="#1f6feb" stroke-width="1.6" fill="none">
      <path d="M166 52 H188"/><path d="M332 52 H354"/><path d="M498 52 H520"/><path d="M664 52 H686"/>
    </g>
    <g fill="#1f6feb">
      <path d="M188 48 L196 52 L188 56 Z"/><path d="M354 48 L362 52 L354 56 Z"/><path d="M520 48 L528 52 L520 56 Z"/><path d="M686 48 L694 52 L686 56 Z"/>
    </g>
    <g fill="#7d8590" font-size="9.5" text-anchor="middle">
      <text x="95" y="92">tickets and docs</text>
      <text x="261" y="92">runbooks</text>
      <text x="427" y="92">cited draft</text>
      <text x="593" y="92">score vs. threshold</text>
      <text x="759" y="92">approve / correct</text>
    </g>
    <!-- audit bar -->
    <rect x="28" y="104" width="798" height="24" rx="6" fill="#161b22" stroke="#21262d"/>
    <text x="427" y="120" font-size="10.5" fill="#7d8590" text-anchor="middle">Audit ledger - every step logged, reviewable later</text>
  </g>
</svg>
